<?xml version="1.0" standalone="no"?>
<!DOCTYPE svg PUBLIC "-//W3C//DTD SVG 20010904//EN"
 "http://www.w3.org/TR/2001/REC-SVG-20010904/DTD/svg10.dtd">
<svg version="1.0" xmlns="http://www.w3.org/2000/svg"
 width="700.000000pt" height="700.000000pt" viewBox="0 0 700.000000 700.000000"
 preserveAspectRatio="xMidYMid meet">
<metadata>
Created by potrace 1.11, written by Peter Selinger 2001-2013
</metadata>
<g transform="translate(0.000000,700.000000) scale(0.100000,-0.100000)"
fill="#000000" stroke="none">
<path d="M1580 6859 c-179 -19 -401 -84 -561 -165 -285 -142 -571 -428 -713
-713 -85 -168 -146 -382 -166 -580 -14 -143 -14 -3660 1 -3802 37 -363 184
-692 424 -947 282 -299 627 -470 1034 -511 143 -15 3659 -15 3802 0 262 26
517 115 724 250 422 275 686 712 735 1214 13 141 13 3646 0 3789 -36 374 -188
707 -443 972 -248 258 -522 405 -897 481 -78 15 -233 17 -1970 19 -1060 1
-1922 -2 -1970 -7z m3788 -609 c111 -14 237 -52 336 -101 258 -129 442 -359
523 -654 l28 -100 0 -1895 0 -1895 -28 -100 c-63 -230 -190 -423 -367 -557
-88 -67 -244 -142 -365 -176 l-100 -27 -1885 0 c-2004 0 -1916 -2 -2070 47
-348 111 -607 406 -681 773 -20 100 -21 3765 -1 3865 91 453 434 768 897 823
79 10 3637 6 3713 -3z"/>
</g>
</svg>
